<?xml version="1.0" encoding="UTF-8" standalone="no"?>
<!-- Created with Inkscape (http://www.inkscape.org/) -->

<svg
   version="1.1"
   id="svg2"
   width="794.66669"
   height="495.89734"
   viewBox="0 0 794.66669 495.89734"
   sodipodi:docname="iceberg_datalab_logo_V2.ai"
   xmlns:inkscape="http://www.inkscape.org/namespaces/inkscape"
   xmlns:sodipodi="http://sodipodi.sourceforge.net/DTD/sodipodi-0.dtd"
   xmlns="http://www.w3.org/2000/svg"
   xmlns:svg="http://www.w3.org/2000/svg">
  <defs
     id="defs6">
    <clipPath
       clipPathUnits="userSpaceOnUse"
       id="clipPath22">
      <path
         d="M 0,371.923 H 596 V 0 H 0 Z"
         id="path20" />
    </clipPath>
  </defs>
  <sodipodi:namedview
     id="namedview4"
     pagecolor="#ffffff"
     bordercolor="#000000"
     borderopacity="0.25"
     inkscape:showpageshadow="2"
     inkscape:pageopacity="0.0"
     inkscape:pagecheckerboard="0"
     inkscape:deskcolor="#d1d1d1" />
  <g
     id="g8"
     inkscape:groupmode="layer"
     inkscape:label="iceberg_datalab_logo_V2"
     transform="matrix(1.3333333,0,0,-1.3333333,0,495.89733)">
    <g
       id="g10"
       transform="translate(247.6197,134.2449)">
      <path
         d="M 0,0 -0.047,0.653 Z"
         style="fill:#235ba7;fill-opacity:1;fill-rule:nonzero;stroke:none"
         id="path12" />
    </g>
    <path
       d="m 271.947,255.117 h 7.163 v -36.852 h -7.163 z"
       style="fill:#235ba7;fill-opacity:1;fill-rule:nonzero;stroke:none"
       id="path14" />
    <g
       id="g16">
      <g
         id="g18"
         clip-path="url(#clipPath22)">
        <g
           id="g24"
           transform="translate(284.0405,231.8635)">
          <path
             d="m 0,0 c 0,1.903 0.329,3.703 0.986,5.398 0.657,1.695 1.609,3.184 2.855,4.464 1.246,1.28 2.751,2.301 4.516,3.062 1.765,0.761 3.754,1.142 5.969,1.142 2.975,0 5.509,-0.641 7.604,-1.92 2.093,-1.281 3.659,-2.959 4.697,-5.035 L 19.828,5.035 C 19.239,6.038 18.46,6.808 17.492,7.345 16.522,7.881 15.45,8.149 14.274,8.149 13.27,8.149 12.335,7.95 11.471,7.552 10.605,7.154 9.853,6.6 9.213,5.891 8.572,5.182 8.071,4.325 7.708,3.322 7.345,2.318 7.163,1.211 7.163,0 c 0,-1.211 0.19,-2.318 0.571,-3.322 0.38,-1.004 0.891,-1.868 1.531,-2.595 0.64,-0.727 1.393,-1.29 2.258,-1.687 0.864,-0.398 1.782,-0.597 2.751,-0.597 1.246,0 2.395,0.312 3.452,0.935 1.055,0.622 1.79,1.383 2.205,2.284 l 6.8,-2.077 c -0.935,-2.076 -2.475,-3.772 -4.62,-5.087 -2.146,-1.315 -4.723,-1.972 -7.734,-1.972 -2.214,0 -4.204,0.382 -5.968,1.142 -1.765,0.761 -3.27,1.791 -4.516,3.088 C 2.647,-8.59 1.687,-7.084 1.012,-5.372 0.337,-3.659 0,-1.868 0,0"
             style="fill:#235ba7;fill-opacity:1;fill-rule:nonzero;stroke:none"
             id="path26" />
        </g>
        <g
           id="g28"
           transform="translate(334.4399,234.1477)">
          <path
             d="M 0,0 C -0.174,2.041 -0.926,3.676 -2.258,4.905 -3.59,6.133 -5.208,6.748 -7.111,6.748 -8.045,6.748 -8.919,6.583 -9.732,6.254 -10.545,5.925 -11.263,5.467 -11.886,4.879 -12.509,4.29 -13.02,3.581 -13.417,2.75 -13.815,1.92 -14.049,1.003 -14.118,0 Z m -7.059,-16.402 c -2.18,0 -4.152,0.372 -5.917,1.116 -1.765,0.744 -3.27,1.756 -4.516,3.036 -1.245,1.28 -2.206,2.769 -2.881,4.464 -0.674,1.695 -1.012,3.478 -1.012,5.347 0,1.937 0.329,3.762 0.987,5.475 0.656,1.713 1.608,3.218 2.855,4.516 1.245,1.298 2.758,2.326 4.541,3.088 1.782,0.761 3.78,1.142 5.995,1.142 2.214,0 4.195,-0.381 5.943,-1.142 C 0.683,9.878 2.171,8.857 3.399,7.578 4.627,6.297 5.562,4.809 6.203,3.114 6.842,1.418 7.163,-0.347 7.163,-2.18 7.163,-2.63 7.154,-3.063 7.137,-3.478 7.119,-3.893 7.076,-4.239 7.007,-4.516 h -21.021 c 0.104,-1.073 0.363,-2.024 0.778,-2.855 0.416,-0.83 0.952,-1.54 1.61,-2.128 0.656,-0.588 1.401,-1.038 2.231,-1.349 0.831,-0.312 1.695,-0.467 2.596,-0.467 1.383,0 2.69,0.337 3.918,1.012 1.228,0.675 2.068,1.565 2.518,2.673 l 5.968,-1.661 c -1.003,-2.076 -2.604,-3.781 -4.801,-5.112 -2.198,-1.333 -4.819,-1.999 -7.863,-1.999"
             style="fill:#235ba7;fill-opacity:1;fill-rule:nonzero;stroke:none"
             id="path30" />
        </g>
        <g
           id="g32"
           transform="translate(359.4053,223.6628)">
          <path
             d="m 0,0 c 1.107,0 2.128,0.216 3.063,0.649 0.934,0.432 1.729,1.012 2.387,1.739 0.657,0.726 1.168,1.574 1.531,2.543 0.364,0.968 0.545,2.006 0.545,3.114 0,1.107 -0.173,2.163 -0.519,3.166 -0.346,1.003 -0.839,1.886 -1.479,2.647 -0.641,0.761 -1.393,1.367 -2.258,1.817 -0.865,0.45 -1.816,0.675 -2.854,0.675 -1.558,0 -2.951,-0.511 -4.179,-1.531 -1.229,-1.021 -2.172,-2.276 -2.829,-3.763 V 4.567 C -6.35,3.875 -5.995,3.252 -5.527,2.699 -5.061,2.145 -4.533,1.669 -3.944,1.271 -3.356,0.874 -2.717,0.562 -2.024,0.337 -1.332,0.112 -0.658,0 0,0 m 1.92,-5.917 c -2.075,0 -3.927,0.467 -5.553,1.401 -1.627,0.934 -2.907,2.214 -3.841,3.841 v -4.723 h -6.073 v 37.89 h 6.955 V 17.024 c 0.969,1.662 2.24,2.95 3.815,3.868 1.574,0.916 3.417,1.375 5.528,1.375 1.765,0 3.374,-0.381 4.827,-1.142 1.454,-0.762 2.707,-1.783 3.763,-3.063 1.055,-1.28 1.869,-2.785 2.44,-4.515 0.571,-1.731 0.856,-3.547 0.856,-5.45 0,-1.972 -0.32,-3.807 -0.96,-5.502 C 13.036,0.899 12.146,-0.58 11.004,-1.842 9.862,-3.106 8.513,-4.101 6.956,-4.827 5.398,-5.554 3.719,-5.917 1.92,-5.917"
             style="fill:#235ba7;fill-opacity:1;fill-rule:nonzero;stroke:none"
             id="path34" />
        </g>
        <g
           id="g36"
           transform="translate(398.4365,234.1477)">
          <path
             d="M 0,0 C -0.174,2.041 -0.926,3.676 -2.258,4.905 -3.59,6.133 -5.208,6.748 -7.111,6.748 -8.045,6.748 -8.919,6.583 -9.732,6.254 -10.545,5.925 -11.263,5.467 -11.886,4.879 -12.509,4.29 -13.02,3.581 -13.417,2.75 -13.815,1.92 -14.049,1.003 -14.118,0 Z m -7.059,-16.402 c -2.18,0 -4.152,0.372 -5.917,1.116 -1.765,0.744 -3.27,1.756 -4.516,3.036 -1.245,1.28 -2.206,2.769 -2.881,4.464 -0.674,1.695 -1.012,3.478 -1.012,5.347 0,1.937 0.329,3.762 0.987,5.475 0.656,1.713 1.608,3.218 2.855,4.516 1.245,1.298 2.758,2.326 4.541,3.088 1.782,0.761 3.78,1.142 5.995,1.142 2.214,0 4.195,-0.381 5.943,-1.142 C 0.683,9.878 2.171,8.857 3.399,7.578 4.627,6.297 5.562,4.809 6.203,3.114 6.842,1.418 7.163,-0.347 7.163,-2.18 7.163,-2.63 7.154,-3.063 7.137,-3.478 7.119,-3.893 7.076,-4.239 7.007,-4.516 h -21.021 c 0.104,-1.073 0.363,-2.024 0.778,-2.855 0.416,-0.83 0.952,-1.54 1.61,-2.128 0.656,-0.588 1.401,-1.038 2.231,-1.349 0.831,-0.312 1.695,-0.467 2.596,-0.467 1.383,0 2.69,0.337 3.918,1.012 1.228,0.675 2.068,1.565 2.518,2.673 l 5.968,-1.661 c -1.003,-2.076 -2.604,-3.781 -4.801,-5.112 -2.198,-1.333 -4.819,-1.999 -7.863,-1.999"
             style="fill:#235ba7;fill-opacity:1;fill-rule:nonzero;stroke:none"
             id="path38" />
        </g>
        <g
           id="g40"
           transform="translate(426.0493,239.4416)">
          <path
             d="m 0,0 c -2.111,-0.035 -3.997,-0.441 -5.658,-1.22 -1.661,-0.778 -2.854,-1.946 -3.581,-3.503 v -16.454 h -6.955 V 6.021 H -9.81 V 0.208 c 0.484,0.934 1.055,1.772 1.713,2.517 0.657,0.744 1.367,1.393 2.128,1.946 0.761,0.554 1.531,0.978 2.31,1.272 0.778,0.294 1.531,0.441 2.258,0.441 h 0.856 c 0.19,0 0.371,-0.018 0.545,-0.051 z"
             style="fill:#235ba7;fill-opacity:1;fill-rule:nonzero;stroke:none"
             id="path42" />
        </g>
        <g
           id="g44"
           transform="translate(441.5684,223.6628)">
          <path
             d="M 0,0 C 0.761,0 1.487,0.121 2.18,0.363 2.872,0.605 3.512,0.935 4.101,1.35 4.688,1.765 5.208,2.249 5.658,2.803 6.107,3.356 6.453,3.945 6.696,4.567 v 6.489 c -0.623,1.591 -1.601,2.871 -2.933,3.84 -1.332,0.969 -2.725,1.454 -4.178,1.454 -1.073,0 -2.042,-0.234 -2.907,-0.701 -0.865,-0.467 -1.609,-1.09 -2.232,-1.868 -0.623,-0.779 -1.098,-1.67 -1.427,-2.674 -0.329,-1.003 -0.493,-2.042 -0.493,-3.114 0,-1.108 0.19,-2.146 0.571,-3.114 C -6.523,3.91 -5.995,3.063 -5.32,2.336 -4.646,1.609 -3.859,1.038 -2.958,0.623 -2.059,0.208 -1.073,0 0,0 m -2.335,-5.554 c -1.835,0 -3.496,0.364 -4.983,1.09 -1.489,0.727 -2.777,1.721 -3.867,2.985 -1.09,1.263 -1.93,2.725 -2.518,4.386 -0.589,1.66 -0.882,3.426 -0.882,5.294 0,1.972 0.312,3.806 0.934,5.502 0.623,1.695 1.488,3.183 2.595,4.464 1.108,1.279 2.44,2.283 3.997,3.01 1.557,0.727 3.27,1.09 5.139,1.09 2.11,0 3.962,-0.476 5.553,-1.428 1.592,-0.952 2.907,-2.223 3.945,-3.815 V 21.8 h 6.073 V -4.101 c 0,-2.006 -0.381,-3.805 -1.142,-5.398 -0.761,-1.59 -1.809,-2.94 -3.14,-4.048 -1.333,-1.107 -2.925,-1.954 -4.775,-2.543 -1.852,-0.588 -3.867,-0.883 -6.047,-0.883 -2.977,0 -5.476,0.494 -7.501,1.48 -2.024,0.986 -3.762,2.379 -5.216,4.178 l 3.789,3.685 c 1.038,-1.28 2.344,-2.284 3.919,-3.01 1.574,-0.727 3.244,-1.09 5.009,-1.09 1.072,0 2.102,0.147 3.088,0.441 0.986,0.294 1.86,0.752 2.621,1.375 0.761,0.623 1.358,1.42 1.791,2.388 0.432,0.969 0.649,2.111 0.649,3.425 v 3.426 C 5.795,-2.232 4.533,-3.435 2.907,-4.282 1.28,-5.13 -0.467,-5.554 -2.335,-5.554"
             style="fill:#235ba7;fill-opacity:1;fill-rule:nonzero;stroke:none"
             id="path46" />
        </g>
        <g
           id="g48"
           transform="translate(296.29,174.4577)">
          <path
             d="m 0,0 c 0,1.765 -0.243,3.391 -0.727,4.879 -0.485,1.487 -1.193,2.768 -2.128,3.841 -0.934,1.072 -2.085,1.903 -3.452,2.492 -1.367,0.588 -2.915,0.882 -4.645,0.882 h -6.229 v -24.291 h 6.229 c 1.765,0 3.33,0.311 4.698,0.934 1.366,0.623 2.508,1.48 3.425,2.57 0.916,1.089 1.617,2.378 2.102,3.866 C -0.243,-3.34 0,-1.73 0,0 m -24.343,-18.478 v 36.852 h 13.391 c 3.011,0 5.649,-0.484 7.915,-1.453 2.266,-0.969 4.161,-2.283 5.684,-3.944 C 4.169,11.315 5.311,9.369 6.073,7.137 6.833,4.905 7.214,2.525 7.214,0 c 0,-2.803 -0.423,-5.338 -1.271,-7.604 -0.848,-2.266 -2.068,-4.204 -3.659,-5.813 -1.593,-1.609 -3.504,-2.854 -5.736,-3.737 -2.232,-0.882 -4.732,-1.324 -7.5,-1.324 z"
             style="fill:#235ba7;fill-opacity:1;fill-rule:nonzero;stroke:none"
             id="path50" />
        </g>
        <g
           id="g52"
           transform="translate(317.8291,160.5476)">
          <path
             d="M 0,0 C 1.176,0 2.292,0.208 3.348,0.623 4.403,1.038 5.225,1.592 5.813,2.284 6.574,2.872 6.956,3.529 6.956,4.256 V 7.37 C 6.125,7.682 5.225,7.933 4.256,8.123 3.287,8.313 2.353,8.408 1.454,8.408 c -1.8,0 -3.27,-0.406 -4.412,-1.22 C -4.1,6.375 -4.671,5.347 -4.671,4.101 -4.671,2.924 -4.222,1.946 -3.322,1.168 -2.422,0.39 -1.315,0 0,0 m -1.972,-5.086 c -1.316,0 -2.544,0.216 -3.685,0.649 -1.142,0.432 -2.128,1.038 -2.959,1.816 -0.83,0.778 -1.479,1.686 -1.946,2.725 -0.467,1.038 -0.701,2.18 -0.701,3.425 0,1.281 0.285,2.466 0.856,3.556 0.572,1.09 1.367,2.016 2.388,2.777 1.02,0.761 2.24,1.358 3.659,1.79 1.419,0.433 2.976,0.65 4.672,0.65 1.21,0 2.396,-0.105 3.555,-0.312 1.159,-0.208 2.188,-0.502 3.089,-0.883 v 1.558 c 0,1.799 -0.512,3.183 -1.532,4.152 -1.021,0.968 -2.535,1.454 -4.541,1.454 -1.454,0 -2.873,-0.26 -4.257,-0.779 -1.384,-0.519 -2.802,-1.281 -4.256,-2.284 l -2.128,4.412 c 3.495,2.317 7.267,3.478 11.315,3.478 3.91,0 6.946,-0.96 9.11,-2.881 2.162,-1.921 3.244,-4.697 3.244,-8.331 V 3.426 C 13.911,2.699 14.04,2.18 14.3,1.869 14.559,1.558 14.982,1.384 15.571,1.35 v -5.917 c -1.176,-0.242 -2.197,-0.364 -3.062,-0.364 -1.315,0 -2.327,0.294 -3.036,0.882 -0.71,0.589 -1.151,1.367 -1.324,2.336 L 7.994,-0.207 C 6.782,-1.8 5.312,-3.011 3.582,-3.841 1.851,-4.671 0,-5.086 -1.972,-5.086"
             style="fill:#235ba7;fill-opacity:1;fill-rule:nonzero;stroke:none"
             id="path54" />
        </g>
        <g
           id="g56"
           transform="translate(354.3174,157.3816)">
          <path
             d="m 0,0 c -0.934,-0.415 -2.076,-0.83 -3.425,-1.246 -1.35,-0.415 -2.769,-0.622 -4.257,-0.622 -0.969,0 -1.877,0.121 -2.725,0.363 -0.848,0.241 -1.592,0.631 -2.232,1.168 -0.64,0.536 -1.15,1.228 -1.53,2.076 -0.382,0.847 -0.572,1.876 -0.572,3.088 V 20.45 h -3.581 v 5.346 h 3.581 v 8.824 h 6.955 v -8.824 h 5.71 V 20.45 h -5.71 V 7.163 c 0,-0.97 0.251,-1.653 0.753,-2.051 0.501,-0.397 1.116,-0.596 1.843,-0.596 0.727,0 1.435,0.121 2.128,0.363 0.691,0.242 1.246,0.449 1.661,0.623 z"
             style="fill:#235ba7;fill-opacity:1;fill-rule:nonzero;stroke:none"
             id="path58" />
        </g>
        <g
           id="g60"
           transform="translate(367.3447,160.5476)">
          <path
             d="M 0,0 C 1.176,0 2.292,0.208 3.348,0.623 4.403,1.038 5.225,1.592 5.813,2.284 6.574,2.872 6.956,3.529 6.956,4.256 V 7.37 C 6.125,7.682 5.225,7.933 4.256,8.123 3.287,8.313 2.353,8.408 1.454,8.408 c -1.8,0 -3.27,-0.406 -4.412,-1.22 C -4.1,6.375 -4.671,5.347 -4.671,4.101 -4.671,2.924 -4.222,1.946 -3.322,1.168 -2.422,0.39 -1.315,0 0,0 m -1.972,-5.086 c -1.316,0 -2.544,0.216 -3.685,0.649 -1.142,0.432 -2.128,1.038 -2.959,1.816 -0.83,0.778 -1.479,1.686 -1.946,2.725 -0.467,1.038 -0.701,2.18 -0.701,3.425 0,1.281 0.285,2.466 0.856,3.556 0.572,1.09 1.367,2.016 2.388,2.777 1.02,0.761 2.24,1.358 3.659,1.79 1.419,0.433 2.976,0.65 4.672,0.65 1.21,0 2.396,-0.105 3.555,-0.312 1.159,-0.208 2.188,-0.502 3.089,-0.883 v 1.558 c 0,1.799 -0.512,3.183 -1.532,4.152 -1.021,0.968 -2.535,1.454 -4.541,1.454 -1.454,0 -2.873,-0.26 -4.257,-0.779 -1.384,-0.519 -2.802,-1.281 -4.256,-2.284 l -2.128,4.412 c 3.495,2.317 7.267,3.478 11.315,3.478 3.91,0 6.946,-0.96 9.11,-2.881 2.162,-1.921 3.244,-4.697 3.244,-8.331 V 3.426 C 13.911,2.699 14.04,2.18 14.3,1.869 14.559,1.558 14.982,1.384 15.571,1.35 v -5.917 c -1.176,-0.242 -2.197,-0.364 -3.062,-0.364 -1.315,0 -2.327,0.294 -3.036,0.882 -0.71,0.589 -1.151,1.367 -1.324,2.336 L 7.994,-0.207 C 6.782,-1.8 5.312,-3.011 3.582,-3.841 1.851,-4.671 0,-5.086 -1.972,-5.086"
             style="fill:#235ba7;fill-opacity:1;fill-rule:nonzero;stroke:none"
             id="path62" />
        </g>
        <g
           id="g64"
           transform="translate(400.874,155.9802)">
          <path
             d="M 0,0 V 36.852 H 7.163 V 6.28 H 25.952 V 0 Z"
             style="fill:#235ba7;fill-opacity:1;fill-rule:nonzero;stroke:none"
             id="path66" />
        </g>
        <g
           id="g68"
           transform="translate(439.9058,160.5476)">
          <path
             d="M 0,0 C 1.176,0 2.292,0.208 3.348,0.623 4.403,1.038 5.225,1.592 5.813,2.284 6.574,2.872 6.956,3.529 6.956,4.256 V 7.37 C 6.125,7.682 5.225,7.933 4.256,8.123 3.287,8.313 2.353,8.408 1.454,8.408 c -1.8,0 -3.27,-0.406 -4.412,-1.22 C -4.1,6.375 -4.671,5.347 -4.671,4.101 -4.671,2.924 -4.222,1.946 -3.322,1.168 -2.422,0.39 -1.315,0 0,0 m -1.972,-5.086 c -1.316,0 -2.544,0.216 -3.685,0.649 -1.142,0.432 -2.128,1.038 -2.959,1.816 -0.83,0.778 -1.479,1.686 -1.946,2.725 -0.467,1.038 -0.701,2.18 -0.701,3.425 0,1.281 0.285,2.466 0.856,3.556 0.572,1.09 1.367,2.016 2.388,2.777 1.02,0.761 2.24,1.358 3.659,1.79 1.419,0.433 2.976,0.65 4.672,0.65 1.21,0 2.396,-0.105 3.555,-0.312 1.159,-0.208 2.188,-0.502 3.089,-0.883 v 1.558 c 0,1.799 -0.512,3.183 -1.532,4.152 -1.021,0.968 -2.535,1.454 -4.541,1.454 -1.454,0 -2.873,-0.26 -4.257,-0.779 -1.384,-0.519 -2.802,-1.281 -4.256,-2.284 l -2.128,4.412 c 3.495,2.317 7.267,3.478 11.315,3.478 3.91,0 6.946,-0.96 9.11,-2.881 2.162,-1.921 3.244,-4.697 3.244,-8.331 V 3.426 C 13.911,2.699 14.04,2.18 14.3,1.869 14.559,1.558 14.982,1.384 15.571,1.35 v -5.917 c -1.176,-0.242 -2.197,-0.364 -3.062,-0.364 -1.315,0 -2.327,0.294 -3.036,0.882 -0.71,0.589 -1.151,1.367 -1.324,2.336 L 7.994,-0.207 C 6.782,-1.8 5.312,-3.011 3.582,-3.841 1.851,-4.671 0,-5.086 -1.972,-5.086"
             style="fill:#235ba7;fill-opacity:1;fill-rule:nonzero;stroke:none"
             id="path70" />
        </g>
        <g
           id="g72"
           transform="translate(473.8506,161.3786)">
          <path
             d="m 0,0 c 1.107,0 2.128,0.215 3.063,0.648 0.934,0.433 1.729,1.012 2.387,1.739 0.657,0.727 1.168,1.574 1.531,2.544 0.364,0.967 0.545,2.006 0.545,3.114 0,1.106 -0.173,2.162 -0.519,3.166 -0.346,1.003 -0.839,1.886 -1.479,2.647 -0.641,0.761 -1.393,1.367 -2.258,1.817 -0.865,0.449 -1.816,0.675 -2.854,0.675 -1.558,0 -2.951,-0.511 -4.179,-1.532 -1.229,-1.021 -2.172,-2.275 -2.829,-3.763 V 4.567 C -6.35,3.875 -5.995,3.252 -5.527,2.698 -5.061,2.145 -4.533,1.669 -3.944,1.271 -3.356,0.873 -2.717,0.562 -2.024,0.337 -1.332,0.111 -0.658,0 0,0 m 1.92,-5.917 c -2.075,0 -3.927,0.467 -5.553,1.401 -1.627,0.934 -2.907,2.214 -3.841,3.841 v -4.723 h -6.073 v 37.889 h 6.955 V 17.024 c 0.969,1.661 2.24,2.95 3.815,3.867 1.574,0.917 3.417,1.376 5.528,1.376 1.765,0 3.374,-0.382 4.827,-1.142 1.454,-0.762 2.707,-1.783 3.763,-3.063 1.055,-1.281 1.869,-2.786 2.44,-4.515 0.571,-1.732 0.856,-3.548 0.856,-5.45 0,-1.973 -0.32,-3.807 -0.96,-5.502 C 13.036,0.899 12.146,-0.58 11.004,-1.843 9.862,-3.106 8.513,-4.101 6.956,-4.827 5.398,-5.554 3.719,-5.917 1.92,-5.917"
             style="fill:#235ba7;fill-opacity:1;fill-rule:nonzero;stroke:none"
             id="path74" />
        </g>
        <g
           id="g76"
           transform="translate(161.1914,195.8562)">
          <path
             d="M 0,0 2.177,23.041 H -7.017 L -0.071,-0.013 C -0.048,-0.008 -0.024,-0.004 0,0"
             style="fill:#235ba7;fill-opacity:1;fill-rule:nonzero;stroke:none"
             id="path78" />
        </g>
        <g
           id="g80"
           transform="translate(165.0732,170.8625)">
          <path
             d="M 0,0 32.479,-36.342 39.053,-3.147 0.35,0.568 C 0.258,0.362 0.137,0.175 0,0"
             style="fill:#235ba7;fill-opacity:1;fill-rule:nonzero;stroke:none"
             id="path82" />
        </g>
        <g
           id="g84"
           transform="translate(162.2881,195.843)">
          <path
             d="M 0,0 8.721,23.054 H 2.057 L -0.12,0.018 C -0.08,0.011 -0.039,0.008 0,0"
             style="fill:#235ba7;fill-opacity:1;fill-rule:nonzero;stroke:none"
             id="path86" />
        </g>
        <g
           id="g88"
           transform="translate(190.0928,135.5862)">
          <path
             d="M 0,0 6.887,-1.884 -21.434,29.805 Z"
             style="fill:#235ba7;fill-opacity:1;fill-rule:nonzero;stroke:none"
             id="path90" />
        </g>
        <g
           id="g92"
           transform="translate(137.6772,185.0183)">
          <path
             d="M 0,0 -5.934,33.25 -4.977,33.421 0.955,0.183 C 1.048,0.192 1.138,0.21 1.233,0.21 1.307,0.21 1.376,0.195 1.449,0.189 l 13.334,33.689 h -38.981 l 0.235,-0.944 0.187,0.135 z"
             style="fill:#235ba7;fill-opacity:1;fill-rule:nonzero;stroke:none"
             id="path94" />
        </g>
        <g
           id="g96"
           transform="translate(163.667,169.9143)">
          <path
             d="M 0,0 7.227,-71.068 25.205,-34.295 0.428,0.159 C 0.292,0.094 0.148,0.042 0,0"
             style="fill:#235ba7;fill-opacity:1;fill-rule:nonzero;stroke:none"
             id="path98" />
        </g>
        <g
           id="g100"
           transform="translate(151.1357,118.9348)">
          <path
             d="M 0,0 7.03,5.027 -1.149,29.485 Z"
             style="fill:#235ba7;fill-opacity:1;fill-rule:nonzero;stroke:none"
             id="path102" />
        </g>
        <g
           id="g104"
           transform="translate(146.2817,153.8293)">
          <path
             d="M 0,0 C 0,0.651 0.235,1.241 0.612,1.713 L -6.97,10.379 3.798,-32.768 2.628,-2.745 C 1.167,-2.677 0,-1.48 0,0"
             style="fill:#235ba7;fill-opacity:1;fill-rule:nonzero;stroke:none"
             id="path106" />
        </g>
        <g
           id="g108"
           transform="translate(159.1953,123.6008)">
          <path
             d="M 0,0 10.772,-25.25 3.821,43.104 Z"
             style="fill:#235ba7;fill-opacity:1;fill-rule:nonzero;stroke:none"
             id="path110" />
        </g>
        <g
           id="g112"
           transform="translate(136.1533,182.4719)">
          <path
             d="M 0,0 C 0,0.746 0.299,1.42 0.78,1.917 L -21.955,33.537 -6.76,-27.433 1.194,-2.27 C 0.474,-1.772 0,-0.942 0,0"
             style="fill:#235ba7;fill-opacity:1;fill-rule:nonzero;stroke:none"
             id="path114" />
        </g>
        <g
           id="g116"
           transform="translate(160.2183,195.4675)">
          <path
             d="m 0,0 -6.909,22.932 -13.234,-33.437 c 0.433,-0.203 0.804,-0.512 1.078,-0.898 l 17.883,8.422 c -0.053,0.213 -0.089,0.434 -0.089,0.665 0,0.974 0.508,1.826 1.271,2.316"
             style="fill:#235ba7;fill-opacity:1;fill-rule:nonzero;stroke:none"
             id="path118" />
        </g>
        <g
           id="g120"
           transform="translate(164.3047,192.2732)">
          <path
             d="m 0,0 c -0.301,-0.891 -1.035,-1.576 -1.958,-1.797 l 0.891,-15.199 c 0.656,-0.078 1.24,-0.378 1.671,-0.835 l 33.161,12.277 c -0.004,0.028 -0.004,0.055 -0.008,0.083 z"
             style="fill:#235ba7;fill-opacity:1;fill-rule:nonzero;stroke:none"
             id="path122" />
        </g>
        <g
           id="g124"
           transform="translate(151.0308,155.7268)">
          <path
             d="m 0,0 c 0.471,-0.495 0.765,-1.16 0.765,-1.897 0,-1.163 -0.721,-2.152 -1.738,-2.559 l 8.39,-25.088 3.873,43.68 C 11.049,14.188 10.825,14.28 10.612,14.391 8.265,11.251 3.755,5.123 0,0"
             style="fill:#235ba7;fill-opacity:1;fill-rule:nonzero;stroke:none"
             id="path126" />
        </g>
        <g
           id="g128"
           transform="translate(160.8765,170.7053)">
          <path
             d="m 0,0 c -0.445,0.49 -0.723,1.134 -0.723,1.849 0,1.3 0.902,2.382 2.113,2.673 L 0.499,19.721 c -0.435,0.052 -0.84,0.194 -1.188,0.424 l -20.751,-25.309 8.187,-9.357 c 0.415,0.25 0.896,0.402 1.415,0.402 0.434,0 0.84,-0.11 1.206,-0.289 C -7.614,-10.288 -2.625,-3.494 0,0"
             style="fill:#235ba7;fill-opacity:1;fill-rule:nonzero;stroke:none"
             id="path130" />
        </g>
        <g
           id="g132"
           transform="translate(225.6431,218.6721)">
          <path
             d="m 0,0 -22.788,-29.704 c 0.42,-0.483 0.683,-1.108 0.683,-1.798 0,-0.656 -0.238,-1.25 -0.619,-1.723 l 12.027,-18.523 10.826,51.557 z"
             style="fill:#235ba7;fill-opacity:1;fill-rule:nonzero;stroke:none"
             id="path134" />
        </g>
        <g
           id="g136"
           transform="translate(164.3867,193.7629)">
          <path
             d="m 0,0 c 0.039,-0.171 0.06,-0.348 0.065,-0.529 l 33.646,-5.453 c 0.279,1.228 1.372,2.146 2.684,2.146 0.151,0 0.297,-0.021 0.443,-0.045 l 5.11,27.917 z"
             style="fill:#235ba7;fill-opacity:1;fill-rule:nonzero;stroke:none"
             id="path138" />
        </g>
        <g
           id="g140"
           transform="translate(224.5898,218.8967)">
          <path
             d="m 0,0 h -17.066 l -5.348,-29.216 z"
             style="fill:#235ba7;fill-opacity:1;fill-rule:nonzero;stroke:none"
             id="path142" />
        </g>
        <g
           id="g144"
           transform="translate(164.0049,194.6643)">
          <path
             d="M 0,0 42.292,24.232 H 8.043 L -0.84,0.816 C -0.505,0.605 -0.217,0.33 0,0"
             style="fill:#235ba7;fill-opacity:1;fill-rule:nonzero;stroke:none"
             id="path146" />
        </g>
        <g
           id="g148"
           transform="translate(200.8862,184.4221)">
          <path
             d="m 0,0 c -0.036,-0.001 -0.069,-0.011 -0.105,-0.011 -1.023,0 -1.906,0.565 -2.382,1.393 l -32.942,-12.201 c 0.134,-0.324 0.21,-0.678 0.21,-1.049 0,-0.058 -0.014,-0.111 -0.017,-0.169 l 38.665,-3.712 0.078,0.394 z"
             style="fill:#235ba7;fill-opacity:1;fill-rule:nonzero;stroke:none"
             id="path150" />
        </g>
        <g
           id="g152"
           transform="translate(201.8379,184.6228)">
          <path
             d="M 0,0 3.599,-15.758 12.416,-18.417 0.34,0.181 C 0.229,0.115 0.119,0.05 0,0"
             style="fill:#235ba7;fill-opacity:1;fill-rule:nonzero;stroke:none"
             id="path154" />
        </g>
        <g
           id="g156"
           transform="translate(159.4854,191.5266)">
          <path
             d="m 0,0 c -0.018,0.024 -0.041,0.044 -0.057,0.069 l -17.866,-8.412 c 0.061,-0.228 0.105,-0.464 0.105,-0.712 0,-1.524 -1.235,-2.758 -2.757,-2.758 -0.232,0 -0.453,0.038 -0.669,0.091 l -7.582,-23.984 7.536,9.664 -0.032,0.037 z"
             style="fill:#235ba7;fill-opacity:1;fill-rule:nonzero;stroke:none"
             id="path158" />
        </g>
        <g
           id="g160"
           transform="translate(153.9624,219.6003)">
          <path
             d="m 0,0 -0.931,-0.28 0.105,-0.348 -0.559,0.221 -0.117,-0.297 h 1.714 z"
             style="fill:#ffffff;fill-opacity:1;fill-rule:nonzero;stroke:none"
             id="path162" />
        </g>
        <g
           id="g164"
           transform="translate(225.6431,218.6721)">
          <path
             d="M 0,0 0.185,0.241 -0.587,0.833 -1.053,0.225 h 0.902 z"
             style="fill:#ffffff;fill-opacity:1;fill-rule:nonzero;stroke:none"
             id="path166" />
        </g>
        <g
           id="g168"
           transform="translate(164.3848,219.3186)">
          <path
             d="M 0,0 -0.968,0.092 -1.016,-0.422 H -0.04 Z"
             style="fill:#ffffff;fill-opacity:1;fill-rule:nonzero;stroke:none"
             id="path170" />
        </g>
        <g
           id="g172"
           transform="translate(172.062,218.9328)">
          <path
             d="m 0,0 -0.909,0.344 -0.144,-0.38 h 1.039 z"
             style="fill:#ffffff;fill-opacity:1;fill-rule:nonzero;stroke:none"
             id="path174" />
        </g>
        <g
           id="g176"
           transform="translate(207.668,219.6824)">
          <path
             d="m 0,0 -1.372,-0.786 h 1.228 z"
             style="fill:#ffffff;fill-opacity:1;fill-rule:nonzero;stroke:none"
             id="path178" />
        </g>
        <g
           id="g180"
           transform="translate(201.2246,189.8816)">
          <path
             d="m 0,0 c -0.146,0.024 -0.292,0.045 -0.443,0.045 -1.312,0 -2.405,-0.918 -2.684,-2.146 l -33.645,5.453 c -0.006,0.182 -0.027,0.358 -0.066,0.529 L 5.11,27.917 Z m -36.315,-15.439 c -0.432,0.457 -1.016,0.757 -1.672,0.835 l -0.891,15.198 c 0.923,0.222 1.657,0.906 1.958,1.798 L -3.163,-3.08 c 0.004,-0.027 0.004,-0.055 0.008,-0.082 z m -6.461,-48.26 -8.391,25.089 c 1.017,0.406 1.738,1.395 1.738,2.558 0,0.737 -0.294,1.403 -0.765,1.897 3.755,5.123 8.265,11.252 10.612,14.391 0.213,-0.111 0.437,-0.203 0.678,-0.255 z m -9.41,30.404 c -0.52,0 -1,-0.153 -1.415,-0.402 l -8.187,9.357 20.751,25.308 c 0.348,-0.229 0.753,-0.371 1.187,-0.424 l 0.892,-15.198 c -1.211,-0.291 -2.113,-1.373 -2.113,-2.674 0,-0.714 0.278,-1.359 0.723,-1.848 -2.625,-3.494 -7.614,-10.288 -10.632,-14.408 -0.366,0.179 -0.772,0.289 -1.206,0.289 m 9.908,36.565 c 0,-0.231 0.037,-0.452 0.09,-0.666 l -17.883,-8.421 c -0.275,0.386 -0.646,0.694 -1.078,0.898 l 13.233,33.437 6.91,-22.932 C -41.77,5.096 -42.278,4.244 -42.278,3.27 M 2.313,-2.712 c 0,0.691 -0.263,1.315 -0.683,1.799 l 22.788,29.704 -0.151,0.224 H 23.365 L 0.951,-0.201 6.299,29.015 H 5.072 L -37.22,4.783 c -0.217,0.329 -0.505,0.605 -0.84,0.816 l 8.884,23.416 h -1.039 L -38.937,5.961 c -0.039,0.009 -0.08,0.012 -0.12,0.018 l 2.177,23.036 h -0.976 L -40.033,5.975 C -40.057,5.97 -40.081,5.967 -40.104,5.961 l -6.946,23.054 h -1.715 L -62.098,-4.674 c -0.073,0.006 -0.142,0.021 -0.216,0.021 -0.096,0 -0.186,-0.018 -0.278,-0.028 l -5.932,33.239 -0.957,-0.171 5.934,-33.25 -23.776,33.069 -0.187,-0.135 0.484,-1.944 22.734,-31.62 c -0.48,-0.496 -0.779,-1.171 -0.779,-1.917 0,-0.942 0.473,-1.772 1.194,-2.27 l -7.955,-25.162 0.131,-0.526 0.094,-0.029 1.042,1.336 7.582,23.984 c 0.215,-0.053 0.437,-0.09 0.669,-0.09 1.522,0 2.756,1.233 2.756,2.757 0,0.248 -0.043,0.484 -0.104,0.712 l 17.866,8.412 c 0.016,-0.025 0.039,-0.045 0.057,-0.069 l -21.323,-26.005 0.033,-0.037 0.604,0.775 0.512,-2.051 7.582,-8.666 c -0.377,-0.472 -0.612,-1.062 -0.612,-1.713 0,-1.48 1.167,-2.677 2.629,-2.745 l 1.169,-30.023 0.61,-2.445 0.446,0.318 -1.149,29.485 8.179,-24.457 0.671,0.479 0.359,-0.841 3.821,43.104 6.951,-68.354 0.319,-0.747 0.607,1.242 -7.227,71.069 c 0.148,0.042 0.292,0.093 0.429,0.159 l 24.776,-34.455 0.13,0.266 1.091,-0.298 -21.433,29.805 28.32,-31.689 0.389,-0.107 0.183,0.925 -32.478,36.342 c 0.136,0.175 0.258,0.362 0.35,0.568 l 38.702,-3.716 0.19,0.959 -38.666,3.712 c 0.004,0.057 0.017,0.111 0.017,0.168 0,0.372 -0.076,0.725 -0.209,1.049 l 32.942,12.202 c 0.475,-0.829 1.358,-1.393 2.382,-1.393 0.036,0 0.069,0.009 0.105,0.011 l 3.507,-15.356 0.021,0.106 1.022,-0.308 -3.599,15.758 c 0.119,0.05 0.23,0.115 0.34,0.181 l 12.076,-18.598 0.51,-0.154 0.183,0.872 -12.028,18.524 c 0.382,0.473 0.619,1.066 0.619,1.722"
             style="fill:#ffffff;fill-opacity:1;fill-rule:nonzero;stroke:none"
             id="path182" />
        </g>
        <g
           id="g184"
           transform="translate(183.6729,257.5237)">
          <path
             d="m 0,0 c 0.226,-0.061 0.459,-0.103 0.705,-0.103 0.334,0 0.649,0.069 0.945,0.177 l 7.714,-11.057 c -0.505,-0.5 -0.819,-1.193 -0.819,-1.959 0,-0.638 0.225,-1.218 0.588,-1.684 l -21.016,-23.106 h -7.046 z m -29.682,-37.732 2.245,36.903 7.064,-36.903 z m -12.604,16.91 c 0.23,-0.062 0.467,-0.106 0.716,-0.106 1.522,0 2.757,1.234 2.757,2.758 0,0.787 -0.334,1.493 -0.863,1.995 l 10.852,16.317 c 0.156,-0.07 0.32,-0.123 0.489,-0.163 l -2.294,-37.711 h -19.542 z m -25.988,-16.91 18.591,26.142 c 0.231,-0.151 0.489,-0.26 0.761,-0.338 l -2.705,-25.804 z m 25.129,17.302 -7.377,-15.819 2.539,24.224 c 0.56,0.038 1.07,0.24 1.489,0.563 l 3.052,-4.695 c -0.541,-0.503 -0.885,-1.216 -0.885,-2.013 0,-0.937 0.469,-1.761 1.182,-2.26 m 28.788,42.325 c 0.026,-0.008 0.05,-0.018 0.077,-0.024 l -5.641,-56.939 -6.733,35.173 c 1.004,0.412 1.712,1.397 1.712,2.55 0,0.794 -0.34,1.504 -0.876,2.007 z M -1.273,4.57 C -1.753,4.074 -2.052,3.4 -2.052,2.655 c 0,-0.94 0.472,-1.768 1.19,-2.266 l -18.188,-36.256 5.713,57.672 c 0.167,0.017 0.328,0.046 0.484,0.091 z m 40.919,-40.721 -25.845,22.059 c 0.162,0.351 0.258,0.738 0.258,1.15 0,1.522 -1.235,2.756 -2.757,2.756 -10e-4,0 -10e-4,0 -0.002,0 L 8.169,7.753 C 8.2,7.763 8.231,7.771 8.261,7.782 Z m -20.37,8.087 c 0.185,0.149 0.352,0.318 0.493,0.51 L 39.454,-37.732 H 24.042 Z m -4.025,0.613 c 0.494,-0.745 1.337,-1.238 2.298,-1.238 0.318,0 0.619,0.065 0.903,0.164 l 4.537,-9.207 H -9.313 Z m -5.423,12.185 c 0.427,-0.272 0.93,-0.435 1.474,-0.435 0.269,0 0.525,0.051 0.771,0.123 l 3.966,-8.049 c -0.75,-0.493 -1.247,-1.339 -1.247,-2.304 0,-0.226 0.035,-0.442 0.086,-0.652 l -24.775,-10.37 z m 7.721,-7.908 c -0.222,0 -0.436,-0.033 -0.643,-0.083 l -3.988,8.09 c 0.123,0.089 0.241,0.183 0.347,0.291 l 24.522,-20.931 -17.604,9.103 c 0.072,0.247 0.123,0.503 0.123,0.773 0,1.523 -1.235,2.757 -2.757,2.757 M 3.462,2.655 c 0,0.604 -0.199,1.157 -0.528,1.611 L 6.13,7.878 C 6.467,7.717 6.839,7.622 7.235,7.61 l 3.136,-17.968 c -0.079,-0.029 -0.156,-0.058 -0.232,-0.093 L 2.468,0.551 C 3.07,1.057 3.462,1.807 3.462,2.655 M 63.947,-37.732 H 41.936 L 9.08,8.262 c 0.599,0.506 0.987,1.253 0.987,2.099 0,1.523 -1.234,2.757 -2.756,2.757 -1.523,0 -2.757,-1.234 -2.757,-2.757 0,-0.756 0.304,-1.44 0.797,-1.938 L 2.26,4.93 C 1.817,5.233 1.282,5.412 0.705,5.412 c -0.436,0 -0.844,-0.11 -1.21,-0.291 l -11.487,17.188 c 0.689,0.502 1.142,1.309 1.142,2.227 0,1.523 -1.234,2.757 -2.757,2.757 -1.522,0 -2.757,-1.234 -2.757,-2.757 0,-0.92 0.455,-1.729 1.146,-2.23 L -26.605,5.185 c -0.335,0.145 -0.705,0.227 -1.094,0.227 -1.522,0 -2.757,-1.234 -2.757,-2.757 0,-0.781 0.328,-1.483 0.849,-1.984 l -10.854,-16.32 c -0.34,0.15 -0.714,0.236 -1.109,0.236 -0.386,0 -0.751,-0.08 -1.084,-0.223 l -3.183,4.896 c 0.264,0.423 0.423,0.919 0.423,1.454 0,1.522 -1.235,2.757 -2.757,2.757 -1.523,0 -2.757,-1.235 -2.757,-2.757 0,-0.619 0.211,-1.185 0.555,-1.645 l -19.06,-26.801 h -15.995 v -2 h 33.591 l -0.212,-2.028 0.945,2.028 h 31.114 l 0.016,-0.082 0.041,0.082 h 83.88 z"
             style="fill:#235ba7;fill-opacity:1;fill-rule:nonzero;stroke:none"
             id="path186" />
        </g>
        <g
           id="g188"
           transform="translate(280.332,120.6843)">
          <path
             d="M 0,0 V -1.604 H -9.665 V 12.633 H -0.18 V 11.028 H -7.86 V 6.417 h 6.677 V 4.913 H -7.86 L -7.86,0 Z"
             style="fill:#235ba7;fill-opacity:1;fill-rule:nonzero;stroke:none"
             id="path190" />
        </g>
        <g
           id="g192"
           transform="translate(291.0996,119.0803)">
          <path
             d="m 0,0 h -1.764 v 5.855 c 0,1.123 -0.171,1.938 -0.512,2.446 -0.341,0.508 -0.859,0.762 -1.554,0.762 -0.36,0 -0.721,-0.07 -1.083,-0.21 C -5.273,8.712 -5.614,8.522 -5.935,8.281 -6.256,8.041 -6.537,7.753 -6.777,7.419 -7.018,7.085 -7.198,6.717 -7.319,6.316 V 0 h -1.764 v 10.467 h 1.604 V 8.221 c 0.414,0.735 1.013,1.323 1.794,1.765 0.783,0.441 1.635,0.661 2.557,0.661 0.602,0 1.103,-0.11 1.504,-0.331 0.401,-0.22 0.722,-0.528 0.962,-0.922 C -0.421,9 -0.25,8.535 -0.15,8 -0.05,7.466 0,6.884 0,6.256 Z"
             style="fill:#235ba7;fill-opacity:1;fill-rule:nonzero;stroke:none"
             id="path194" />
        </g>
        <g
           id="g196"
           transform="translate(296.5942,120.2034)">
          <path
             d="M 0,0 C 0.628,0 1.213,0.117 1.754,0.351 2.296,0.584 2.707,0.896 2.988,1.283 3.242,1.537 3.369,1.797 3.369,2.065 V 3.609 C 2.513,3.943 1.624,4.11 0.702,4.11 -0.181,4.11 -0.899,3.923 -1.454,3.549 -2.009,3.175 -2.286,2.687 -2.286,2.085 -2.286,1.791 -2.229,1.517 -2.115,1.263 -2.002,1.009 -1.842,0.789 -1.634,0.602 -1.427,0.414 -1.183,0.267 -0.902,0.16 -0.622,0.053 -0.321,0 0,0 m -0.461,-1.324 c -0.495,0 -0.956,0.084 -1.384,0.251 -0.428,0.167 -0.799,0.398 -1.113,0.692 -0.314,0.294 -0.561,0.638 -0.742,1.032 -0.18,0.395 -0.27,0.826 -0.27,1.294 0,0.481 0.107,0.919 0.321,1.313 0.213,0.394 0.518,0.732 0.912,1.013 0.394,0.281 0.862,0.501 1.404,0.662 0.541,0.16 1.132,0.24 1.774,0.24 0.508,0 1.023,-0.047 1.544,-0.14 C 2.506,4.939 2.968,4.812 3.369,4.652 v 0.842 c 0,0.855 -0.241,1.527 -0.722,2.015 -0.481,0.488 -1.163,0.732 -2.045,0.732 -1.057,0 -2.166,-0.408 -3.329,-1.223 L -3.309,8.161 C -1.958,9.07 -0.602,9.524 0.762,9.524 2.139,9.524 3.211,9.157 3.98,8.421 4.749,7.686 5.133,6.65 5.133,5.313 V 1.042 C 5.133,0.628 5.32,0.414 5.695,0.401 V -1.123 C 5.507,-1.15 5.354,-1.17 5.233,-1.183 c -0.12,-0.013 -0.247,-0.02 -0.38,-0.02 -0.348,0 -0.625,0.103 -0.832,0.31 -0.208,0.207 -0.332,0.458 -0.372,0.752 L 3.609,0.602 C 3.141,-0.027 2.55,-0.505 1.834,-0.833 1.12,-1.16 0.354,-1.324 -0.461,-1.324"
             style="fill:#235ba7;fill-opacity:1;fill-rule:nonzero;stroke:none"
             id="path198" />
        </g>
        <g
           id="g200"
           transform="translate(309.0859,120.4035)">
          <path
             d="m 0,0 c 0.521,0 1.002,0.107 1.444,0.321 0.441,0.214 0.822,0.501 1.142,0.862 0.321,0.361 0.569,0.772 0.743,1.234 0.173,0.46 0.26,0.945 0.26,1.453 0,0.508 -0.084,0.999 -0.251,1.474 C 3.171,5.818 2.938,6.236 2.637,6.597 2.336,6.958 1.975,7.249 1.554,7.469 1.133,7.69 0.668,7.8 0.16,7.8 -0.214,7.8 -0.568,7.733 -0.902,7.6 -1.237,7.466 -1.547,7.289 -1.835,7.068 -2.123,6.848 -2.376,6.59 -2.597,6.296 -2.817,6.002 -3.008,5.688 -3.168,5.354 V 2.326 C -3.102,1.992 -2.958,1.685 -2.737,1.404 -2.517,1.123 -2.256,0.879 -1.955,0.672 -1.654,0.464 -1.333,0.301 -0.993,0.181 -0.652,0.061 -0.321,0 0,0 m 0.441,-1.524 c -0.816,0 -1.557,0.201 -2.226,0.602 C -2.453,-0.521 -2.981,0 -3.369,0.642 v -1.965 h -1.564 v 14.637 h 1.765 V 7.058 c 0.441,0.682 0.982,1.23 1.624,1.645 0.642,0.414 1.39,0.621 2.246,0.621 0.721,0 1.37,-0.154 1.945,-0.461 C 3.221,8.555 3.712,8.151 4.121,7.65 4.528,7.148 4.842,6.567 5.063,5.905 5.284,5.244 5.394,4.565 5.394,3.87 5.394,3.135 5.267,2.439 5.013,1.785 4.759,1.129 4.411,0.558 3.97,0.07 3.529,-0.418 3.004,-0.805 2.396,-1.093 1.788,-1.38 1.136,-1.524 0.441,-1.524"
             style="fill:#235ba7;fill-opacity:1;fill-rule:nonzero;stroke:none"
             id="path202" />
        </g>
        <g
           id="g204"
           transform="translate(316.2842,133.718)">
          <path
             d="m 0,0 h 1.765 v -11.931 c 0,-0.387 0.103,-0.692 0.31,-0.912 0.207,-0.22 0.498,-0.331 0.872,-0.331 0.147,0 0.322,0.023 0.522,0.07 0.2,0.047 0.387,0.104 0.561,0.171 l 0.281,-1.424 c -0.294,-0.12 -0.642,-0.221 -1.042,-0.301 -0.402,-0.08 -0.756,-0.12 -1.063,-0.12 -0.682,0 -1.221,0.194 -1.615,0.581 C 0.197,-13.809 0,-13.268 0,-12.572 Z"
             style="fill:#235ba7;fill-opacity:1;fill-rule:nonzero;stroke:none"
             id="path206" />
        </g>
        <path
           d="m 321.578,129.547 h 1.764 V 119.08 h -1.764 z m 0,4.171 h 1.764 v -2.206 h -1.764 z"
           style="fill:#235ba7;fill-opacity:1;fill-rule:nonzero;stroke:none"
           id="path208" />
        <g
           id="g210"
           transform="translate(334.8716,119.0803)">
          <path
             d="m 0,0 h -1.764 v 5.855 c 0,1.123 -0.171,1.938 -0.512,2.446 -0.341,0.508 -0.859,0.762 -1.554,0.762 -0.36,0 -0.721,-0.07 -1.083,-0.21 C -5.273,8.712 -5.614,8.522 -5.935,8.281 -6.256,8.041 -6.537,7.753 -6.777,7.419 -7.018,7.085 -7.198,6.717 -7.319,6.316 V 0 h -1.764 v 10.467 h 1.604 V 8.221 c 0.414,0.735 1.013,1.323 1.794,1.765 0.783,0.441 1.635,0.661 2.557,0.661 0.602,0 1.103,-0.11 1.504,-0.331 0.401,-0.22 0.722,-0.528 0.962,-0.922 C -0.421,9 -0.25,8.535 -0.15,8 -0.05,7.466 0,6.884 0,6.256 Z"
             style="fill:#235ba7;fill-opacity:1;fill-rule:nonzero;stroke:none"
             id="path212" />
        </g>
        <g
           id="g214"
           transform="translate(341.9297,120.4035)">
          <path
             d="M 0,0 C 0.374,0 0.735,0.067 1.083,0.201 1.43,0.334 1.751,0.512 2.045,0.732 2.339,0.953 2.587,1.203 2.787,1.484 2.988,1.765 3.121,2.052 3.188,2.346 V 5.354 C 3.041,5.715 2.851,6.042 2.617,6.336 2.383,6.63 2.119,6.888 1.825,7.108 1.531,7.329 1.213,7.5 0.872,7.62 0.531,7.74 0.187,7.8 -0.16,7.8 -0.695,7.8 -1.173,7.687 -1.594,7.459 -2.015,7.232 -2.373,6.931 -2.667,6.557 -2.961,6.183 -3.188,5.758 -3.349,5.284 -3.509,4.809 -3.589,4.332 -3.589,3.85 c 0,-0.521 0.093,-1.016 0.28,-1.484 0.187,-0.468 0.442,-0.875 0.763,-1.223 0.32,-0.348 0.698,-0.625 1.132,-0.832 C -0.979,0.104 -0.508,0 0,0 m -0.542,-1.443 c -0.708,0 -1.36,0.147 -1.955,0.441 -0.594,0.294 -1.106,0.688 -1.533,1.183 -0.428,0.494 -0.759,1.062 -0.993,1.704 -0.234,0.642 -0.351,1.31 -0.351,2.005 0,0.735 0.117,1.434 0.351,2.095 0.234,0.662 0.565,1.24 0.993,1.735 0.427,0.494 0.939,0.885 1.533,1.173 0.595,0.287 1.254,0.431 1.976,0.431 0.882,0 1.644,-0.214 2.286,-0.641 C 2.406,8.254 2.948,7.713 3.389,7.058 V 9.144 H 4.953 V -1.203 C 4.953,-1.952 4.812,-2.61 4.532,-3.178 4.251,-3.746 3.87,-4.224 3.389,-4.612 2.908,-4.999 2.343,-5.293 1.694,-5.494 c -0.648,-0.2 -1.34,-0.301 -2.075,-0.301 -1.19,0 -2.156,0.204 -2.897,0.612 -0.743,0.408 -1.361,0.973 -1.855,1.694 l 1.023,0.903 c 0.414,-0.615 0.948,-1.077 1.604,-1.384 0.654,-0.307 1.363,-0.461 2.125,-0.461 0.481,0 0.939,0.067 1.374,0.2 0.434,0.134 0.812,0.335 1.132,0.602 0.321,0.267 0.579,0.601 0.772,1.003 0.194,0.4 0.291,0.875 0.291,1.423 V 0.642 C 2.988,0.321 2.75,0.03 2.477,-0.23 2.202,-0.491 1.905,-0.711 1.584,-0.892 1.263,-1.073 0.922,-1.21 0.562,-1.303 0.201,-1.396 -0.167,-1.443 -0.542,-1.443"
             style="fill:#235ba7;fill-opacity:1;fill-rule:nonzero;stroke:none"
             id="path216" />
        </g>
        <g
           id="g218"
           transform="translate(362.6431,130.3293)">
          <path
             d="m 0,0 c -0.161,0.187 -0.375,0.368 -0.642,0.542 -0.267,0.173 -0.568,0.33 -0.902,0.471 -0.334,0.14 -0.699,0.253 -1.093,0.341 -0.394,0.086 -0.805,0.13 -1.233,0.13 -1.109,0 -1.922,-0.208 -2.436,-0.622 -0.515,-0.414 -0.772,-0.983 -0.772,-1.704 0,-0.388 0.073,-0.709 0.221,-0.963 0.146,-0.254 0.377,-0.471 0.691,-0.652 0.314,-0.18 0.705,-0.337 1.173,-0.471 0.468,-0.134 1.023,-0.274 1.664,-0.421 0.735,-0.16 1.401,-0.344 1.996,-0.551 0.594,-0.207 1.103,-0.465 1.523,-0.772 0.421,-0.308 0.743,-0.682 0.963,-1.123 0.221,-0.441 0.331,-0.982 0.331,-1.624 0,-0.682 -0.134,-1.273 -0.401,-1.775 -0.268,-0.501 -0.632,-0.915 -1.093,-1.243 -0.461,-0.328 -1.006,-0.568 -1.634,-0.722 -0.629,-0.154 -1.311,-0.23 -2.045,-0.23 -1.097,0 -2.136,0.17 -3.119,0.511 -0.982,0.341 -1.874,0.838 -2.676,1.494 l 0.862,1.524 c 0.213,-0.228 0.491,-0.455 0.832,-0.682 0.341,-0.228 0.728,-0.431 1.163,-0.612 0.434,-0.18 0.902,-0.327 1.403,-0.441 0.502,-0.113 1.026,-0.17 1.575,-0.17 1.015,0 1.804,0.18 2.366,0.541 0.561,0.361 0.842,0.903 0.842,1.624 0,0.401 -0.09,0.739 -0.271,1.013 -0.18,0.274 -0.444,0.511 -0.792,0.712 -0.348,0.2 -0.779,0.377 -1.293,0.531 -0.515,0.154 -1.1,0.311 -1.755,0.471 -0.721,0.174 -1.357,0.361 -1.905,0.562 -0.548,0.2 -1.006,0.441 -1.373,0.722 -0.368,0.28 -0.645,0.621 -0.832,1.022 -0.188,0.401 -0.281,0.882 -0.281,1.444 0,0.682 0.127,1.283 0.381,1.805 0.254,0.521 0.608,0.962 1.062,1.323 0.455,0.361 0.997,0.632 1.625,0.812 0.628,0.181 1.31,0.271 2.045,0.271 0.963,0 1.831,-0.148 2.607,-0.441 0.775,-0.294 1.464,-0.689 2.065,-1.183 z"
             style="fill:#235ba7;fill-opacity:1;fill-rule:nonzero;stroke:none"
             id="path220" />
        </g>
        <g
           id="g222"
           transform="translate(369.0391,118.8796)">
          <path
             d="m 0,0 c -1.096,0 -1.925,0.368 -2.486,1.103 -0.562,0.735 -0.843,1.831 -0.843,3.289 v 6.275 h 1.765 V 4.732 c 0,-2.139 0.742,-3.208 2.226,-3.208 0.722,0 1.4,0.231 2.035,0.692 0.635,0.461 1.106,1.093 1.414,1.895 v 6.556 H 5.875 V 2.366 c 0,-0.414 0.187,-0.628 0.562,-0.641 V 0.201 C 6.236,0.174 6.079,0.157 5.965,0.15 5.852,0.144 5.742,0.141 5.635,0.141 5.287,0.141 4.996,0.244 4.762,0.451 4.528,0.658 4.405,0.916 4.392,1.223 L 4.352,2.446 C 3.883,1.658 3.269,1.053 2.506,0.632 1.745,0.211 0.909,0 0,0"
             style="fill:#235ba7;fill-opacity:1;fill-rule:nonzero;stroke:none"
             id="path224" />
        </g>
        <g
           id="g226"
           transform="translate(381.1304,118.8796)">
          <path
             d="m 0,0 c -0.842,0 -1.671,0.13 -2.486,0.391 -0.816,0.261 -1.518,0.638 -2.106,1.133 l 0.762,1.183 c 0.615,-0.468 1.23,-0.819 1.845,-1.053 0.614,-0.234 1.263,-0.35 1.945,-0.35 0.762,0 1.366,0.15 1.814,0.451 0.448,0.301 0.672,0.724 0.672,1.273 0,0.254 -0.06,0.471 -0.18,0.652 C 2.146,3.86 1.965,4.017 1.724,4.151 1.484,4.284 1.176,4.405 0.802,4.512 0.428,4.619 -0.007,4.732 -0.501,4.853 -1.13,5.013 -1.671,5.167 -2.125,5.314 -2.58,5.461 -2.955,5.635 -3.249,5.835 -3.542,6.036 -3.757,6.276 -3.89,6.557 -4.024,6.838 -4.091,7.185 -4.091,7.6 c 0,0.521 0.104,0.985 0.311,1.393 0.207,0.408 0.491,0.749 0.852,1.023 0.361,0.274 0.785,0.481 1.274,0.622 0.487,0.14 1.012,0.21 1.573,0.21 0.789,0 1.524,-0.127 2.206,-0.381 C 2.807,10.213 3.382,9.879 3.85,9.464 L 3.048,8.402 C 2.606,8.79 2.112,9.08 1.564,9.274 1.016,9.468 0.454,9.565 -0.121,9.565 -0.762,9.565 -1.307,9.428 -1.755,9.154 -2.203,8.879 -2.426,8.442 -2.426,7.84 c 0,-0.24 0.043,-0.441 0.13,-0.601 0.087,-0.16 0.231,-0.301 0.431,-0.421 0.2,-0.121 0.458,-0.228 0.772,-0.321 C -0.779,6.403 -0.401,6.303 0.04,6.196 0.735,6.036 1.34,5.872 1.854,5.705 2.369,5.538 2.797,5.34 3.138,5.113 3.479,4.886 3.732,4.619 3.9,4.311 4.067,4.003 4.15,3.629 4.15,3.188 4.15,2.212 3.776,1.437 3.028,0.862 2.279,0.288 1.27,0 0,0"
             style="fill:#235ba7;fill-opacity:1;fill-rule:nonzero;stroke:none"
             id="path228" />
        </g>
        <g
           id="g230"
           transform="translate(392.3789,119.6018)">
          <path
             d="m 0,0 c -0.107,-0.054 -0.247,-0.117 -0.421,-0.19 -0.174,-0.074 -0.371,-0.148 -0.591,-0.221 -0.221,-0.074 -0.462,-0.133 -0.722,-0.181 -0.261,-0.046 -0.532,-0.07 -0.812,-0.07 -0.642,0 -1.197,0.177 -1.664,0.532 -0.469,0.354 -0.703,0.905 -0.703,1.654 v 7.038 h -1.423 v 1.383 h 1.423 v 3.49 h 1.765 v -3.49 h 2.346 V 8.562 H -3.148 V 2.065 c 0.027,-0.388 0.153,-0.669 0.381,-0.842 0.227,-0.174 0.495,-0.261 0.802,-0.261 0.348,0 0.665,0.057 0.953,0.171 0.287,0.113 0.484,0.203 0.591,0.27 z"
             style="fill:#235ba7;fill-opacity:1;fill-rule:nonzero;stroke:none"
             id="path232" />
        </g>
        <g
           id="g234"
           transform="translate(396.77,120.2034)">
          <path
             d="M 0,0 C 0.628,0 1.213,0.117 1.754,0.351 2.296,0.584 2.707,0.896 2.988,1.283 3.242,1.537 3.369,1.797 3.369,2.065 V 3.609 C 2.513,3.943 1.624,4.11 0.702,4.11 -0.181,4.11 -0.899,3.923 -1.454,3.549 -2.009,3.175 -2.286,2.687 -2.286,2.085 -2.286,1.791 -2.229,1.517 -2.115,1.263 -2.002,1.009 -1.842,0.789 -1.634,0.602 -1.427,0.414 -1.183,0.267 -0.902,0.16 -0.622,0.053 -0.321,0 0,0 m -0.461,-1.324 c -0.495,0 -0.956,0.084 -1.384,0.251 -0.428,0.167 -0.799,0.398 -1.113,0.692 -0.314,0.294 -0.561,0.638 -0.742,1.032 -0.18,0.395 -0.27,0.826 -0.27,1.294 0,0.481 0.107,0.919 0.321,1.313 0.213,0.394 0.518,0.732 0.912,1.013 0.394,0.281 0.862,0.501 1.404,0.662 0.541,0.16 1.132,0.24 1.774,0.24 0.508,0 1.023,-0.047 1.544,-0.14 C 2.506,4.939 2.968,4.812 3.369,4.652 v 0.842 c 0,0.855 -0.241,1.527 -0.722,2.015 -0.481,0.488 -1.163,0.732 -2.045,0.732 -1.057,0 -2.166,-0.408 -3.329,-1.223 L -3.309,8.161 C -1.958,9.07 -0.602,9.524 0.762,9.524 2.139,9.524 3.211,9.157 3.98,8.421 4.749,7.686 5.133,6.65 5.133,5.313 V 1.042 C 5.133,0.628 5.32,0.414 5.695,0.401 V -1.123 C 5.507,-1.15 5.354,-1.17 5.233,-1.183 c -0.12,-0.013 -0.247,-0.02 -0.38,-0.02 -0.348,0 -0.625,0.103 -0.832,0.31 -0.208,0.207 -0.332,0.458 -0.372,0.752 L 3.609,0.602 C 3.141,-0.027 2.55,-0.505 1.834,-0.833 1.12,-1.16 0.354,-1.324 -0.461,-1.324"
             style="fill:#235ba7;fill-opacity:1;fill-rule:nonzero;stroke:none"
             id="path236" />
        </g>
        <path
           d="m 404.33,129.547 h 1.764 V 119.08 h -1.764 z m 0,4.171 h 1.764 v -2.206 h -1.764 z"
           style="fill:#235ba7;fill-opacity:1;fill-rule:nonzero;stroke:none"
           id="path238" />
        <g
           id="g240"
           transform="translate(417.623,119.0803)">
          <path
             d="m 0,0 h -1.764 v 5.855 c 0,1.123 -0.171,1.938 -0.512,2.446 -0.341,0.508 -0.859,0.762 -1.554,0.762 -0.36,0 -0.721,-0.07 -1.083,-0.21 C -5.273,8.712 -5.614,8.522 -5.935,8.281 -6.256,8.041 -6.537,7.753 -6.777,7.419 -7.018,7.085 -7.198,6.717 -7.319,6.316 V 0 h -1.764 v 10.467 h 1.604 V 8.221 c 0.414,0.735 1.013,1.323 1.794,1.765 0.783,0.441 1.635,0.661 2.557,0.661 0.602,0 1.103,-0.11 1.504,-0.331 0.401,-0.22 0.722,-0.528 0.962,-0.922 C -0.421,9 -0.25,8.535 -0.15,8 -0.05,7.466 0,6.884 0,6.256 Z"
             style="fill:#235ba7;fill-opacity:1;fill-rule:nonzero;stroke:none"
             id="path242" />
        </g>
        <g
           id="g244"
           transform="translate(423.1177,120.2034)">
          <path
             d="M 0,0 C 0.628,0 1.213,0.117 1.754,0.351 2.296,0.584 2.707,0.896 2.988,1.283 3.242,1.537 3.369,1.797 3.369,2.065 V 3.609 C 2.513,3.943 1.624,4.11 0.702,4.11 -0.181,4.11 -0.899,3.923 -1.454,3.549 -2.009,3.175 -2.286,2.687 -2.286,2.085 -2.286,1.791 -2.229,1.517 -2.115,1.263 -2.002,1.009 -1.842,0.789 -1.634,0.602 -1.427,0.414 -1.183,0.267 -0.902,0.16 -0.622,0.053 -0.321,0 0,0 m -0.461,-1.324 c -0.495,0 -0.956,0.084 -1.384,0.251 -0.428,0.167 -0.799,0.398 -1.113,0.692 -0.314,0.294 -0.561,0.638 -0.742,1.032 -0.18,0.395 -0.27,0.826 -0.27,1.294 0,0.481 0.107,0.919 0.321,1.313 0.213,0.394 0.518,0.732 0.912,1.013 0.394,0.281 0.862,0.501 1.404,0.662 0.541,0.16 1.132,0.24 1.774,0.24 0.508,0 1.023,-0.047 1.544,-0.14 C 2.506,4.939 2.968,4.812 3.369,4.652 v 0.842 c 0,0.855 -0.241,1.527 -0.722,2.015 -0.481,0.488 -1.163,0.732 -2.045,0.732 -1.057,0 -2.166,-0.408 -3.329,-1.223 L -3.309,8.161 C -1.958,9.07 -0.602,9.524 0.762,9.524 2.139,9.524 3.211,9.157 3.98,8.421 4.749,7.686 5.133,6.65 5.133,5.313 V 1.042 C 5.133,0.628 5.32,0.414 5.695,0.401 V -1.123 C 5.507,-1.15 5.354,-1.17 5.233,-1.183 c -0.12,-0.013 -0.247,-0.02 -0.38,-0.02 -0.348,0 -0.625,0.103 -0.832,0.31 -0.208,0.207 -0.332,0.458 -0.372,0.752 L 3.609,0.602 C 3.141,-0.027 2.55,-0.505 1.834,-0.833 1.12,-1.16 0.354,-1.324 -0.461,-1.324"
             style="fill:#235ba7;fill-opacity:1;fill-rule:nonzero;stroke:none"
             id="path246" />
        </g>
        <g
           id="g248"
           transform="translate(435.6094,120.4035)">
          <path
             d="m 0,0 c 0.521,0 1.002,0.107 1.444,0.321 0.441,0.214 0.822,0.501 1.142,0.862 0.321,0.361 0.569,0.772 0.743,1.234 0.173,0.46 0.26,0.945 0.26,1.453 0,0.508 -0.084,0.999 -0.251,1.474 C 3.171,5.818 2.938,6.236 2.637,6.597 2.336,6.958 1.975,7.249 1.554,7.469 1.133,7.69 0.668,7.8 0.16,7.8 -0.214,7.8 -0.568,7.733 -0.902,7.6 -1.237,7.466 -1.547,7.289 -1.835,7.068 -2.123,6.848 -2.376,6.59 -2.597,6.296 -2.817,6.002 -3.008,5.688 -3.168,5.354 V 2.326 C -3.102,1.992 -2.958,1.685 -2.737,1.404 -2.517,1.123 -2.256,0.879 -1.955,0.672 -1.654,0.464 -1.333,0.301 -0.993,0.181 -0.652,0.061 -0.321,0 0,0 m 0.441,-1.524 c -0.816,0 -1.557,0.201 -2.226,0.602 C -2.453,-0.521 -2.981,0 -3.369,0.642 v -1.965 h -1.564 v 14.637 h 1.765 V 7.058 c 0.441,0.682 0.982,1.23 1.624,1.645 0.642,0.414 1.39,0.621 2.246,0.621 0.721,0 1.37,-0.154 1.945,-0.461 C 3.221,8.555 3.712,8.151 4.121,7.65 4.528,7.148 4.842,6.567 5.063,5.905 5.284,5.244 5.394,4.565 5.394,3.87 5.394,3.135 5.267,2.439 5.013,1.785 4.759,1.129 4.411,0.558 3.97,0.07 3.529,-0.418 3.004,-0.805 2.396,-1.093 1.788,-1.38 1.136,-1.524 0.441,-1.524"
             style="fill:#235ba7;fill-opacity:1;fill-rule:nonzero;stroke:none"
             id="path250" />
        </g>
        <g
           id="g252"
           transform="translate(442.8076,133.718)">
          <path
             d="m 0,0 h 1.765 v -11.931 c 0,-0.387 0.103,-0.692 0.31,-0.912 0.207,-0.22 0.498,-0.331 0.872,-0.331 0.147,0 0.322,0.023 0.522,0.07 0.2,0.047 0.387,0.104 0.561,0.171 l 0.281,-1.424 c -0.294,-0.12 -0.642,-0.221 -1.042,-0.301 -0.402,-0.08 -0.756,-0.12 -1.063,-0.12 -0.682,0 -1.221,0.194 -1.615,0.581 C 0.197,-13.809 0,-13.268 0,-12.572 Z"
             style="fill:#235ba7;fill-opacity:1;fill-rule:nonzero;stroke:none"
             id="path254" />
        </g>
        <g
           id="g256"
           transform="translate(456.3223,125.0154)">
          <path
             d="M 0,0 C -0.041,0.495 -0.164,0.953 -0.371,1.374 -0.579,1.795 -0.839,2.152 -1.153,2.446 -1.467,2.74 -1.832,2.971 -2.246,3.138 -2.661,3.305 -3.102,3.389 -3.569,3.389 -4.038,3.389 -4.479,3.305 -4.893,3.138 -5.307,2.971 -5.672,2.737 -5.986,2.437 -6.3,2.136 -6.554,1.778 -6.748,1.364 -6.941,0.949 -7.059,0.495 -7.099,0 Z m -3.589,-6.136 c -0.789,0 -1.511,0.144 -2.166,0.431 -0.655,0.288 -1.217,0.679 -1.684,1.174 -0.468,0.494 -0.832,1.073 -1.093,1.734 -0.261,0.662 -0.391,1.36 -0.391,2.095 0,0.735 0.13,1.431 0.391,2.086 0.261,0.655 0.628,1.229 1.103,1.724 0.474,0.495 1.039,0.886 1.694,1.173 0.655,0.287 1.377,0.431 2.166,0.431 0.788,0 1.506,-0.147 2.155,-0.441 C -0.766,3.977 -0.214,3.586 0.24,3.098 0.695,2.61 1.045,2.042 1.293,1.394 1.541,0.745 1.664,0.074 1.664,-0.622 c 0,-0.147 -0.003,-0.28 -0.01,-0.4 -0.007,-0.121 -0.017,-0.214 -0.03,-0.281 h -8.683 c 0.041,-0.522 0.161,-0.996 0.362,-1.424 0.2,-0.428 0.461,-0.795 0.781,-1.103 0.321,-0.307 0.686,-0.548 1.093,-0.721 0.408,-0.175 0.839,-0.261 1.294,-0.261 0.321,0 0.634,0.043 0.942,0.13 0.308,0.087 0.595,0.204 0.862,0.351 0.267,0.147 0.505,0.328 0.712,0.541 0.207,0.214 0.364,0.455 0.471,0.722 L 0.982,-3.489 C 0.809,-3.876 0.571,-4.23 0.271,-4.551 -0.03,-4.873 -0.378,-5.15 -0.772,-5.384 -1.167,-5.618 -1.604,-5.802 -2.085,-5.935 -2.567,-6.068 -3.068,-6.136 -3.589,-6.136"
             style="fill:#235ba7;fill-opacity:1;fill-rule:nonzero;stroke:none"
             id="path258" />
        </g>
        <g
           id="g260"
           transform="translate(474.5488,121.0051)">
          <path
             d="m 0,0 c -1.257,-1.35 -2.701,-2.025 -4.332,-2.025 -0.949,0 -1.828,0.207 -2.636,0.622 -0.809,0.414 -1.508,0.959 -2.095,1.634 -0.589,0.675 -1.053,1.447 -1.394,2.316 -0.341,0.869 -0.511,1.764 -0.511,2.686 0,0.963 0.167,1.875 0.501,2.738 0.334,0.862 0.795,1.624 1.384,2.285 0.587,0.662 1.289,1.187 2.105,1.575 0.815,0.387 1.697,0.581 2.646,0.581 1.377,0 2.51,-0.287 3.399,-0.862 0.889,-0.575 1.567,-1.323 2.036,-2.246 L -0.281,8.342 c -0.428,0.828 -0.996,1.443 -1.704,1.845 -0.709,0.4 -1.504,0.601 -2.387,0.601 -0.721,0 -1.377,-0.157 -1.964,-0.471 C -6.925,10.002 -7.426,9.588 -7.84,9.074 -8.255,8.559 -8.576,7.964 -8.803,7.289 -9.03,6.614 -9.144,5.916 -9.144,5.193 c 0,-0.761 0.127,-1.48 0.381,-2.155 0.254,-0.675 0.602,-1.27 1.043,-1.785 0.441,-0.514 0.962,-0.919 1.564,-1.213 0.601,-0.294 1.256,-0.441 1.965,-0.441 1.55,0 2.947,0.749 4.191,2.246 V 3.81 h -3.068 v 1.363 h 4.591 v -7.098 l -1.523,0 z"
             style="fill:#235ba7;fill-opacity:1;fill-rule:nonzero;stroke:none"
             id="path262" />
        </g>
        <g
           id="g264"
           transform="translate(479.2402,124.2737)">
          <path
             d="m 0,0 c 0,-0.548 0.09,-1.056 0.271,-1.524 0.18,-0.468 0.428,-0.875 0.742,-1.223 0.314,-0.348 0.681,-0.622 1.103,-0.822 0.421,-0.201 0.872,-0.301 1.353,-0.301 0.481,0 0.932,0.1 1.354,0.301 0.421,0.2 0.792,0.478 1.113,0.832 0.32,0.354 0.571,0.769 0.751,1.243 0.181,0.474 0.271,0.986 0.271,1.534 0,0.535 -0.09,1.04 -0.271,1.514 C 6.507,2.028 6.256,2.443 5.936,2.797 5.615,3.151 5.244,3.429 4.823,3.629 4.401,3.83 3.95,3.93 3.469,3.93 2.988,3.93 2.537,3.827 2.116,3.619 1.694,3.412 1.327,3.131 1.013,2.777 0.699,2.423 0.451,2.008 0.271,1.534 0.09,1.059 0,0.548 0,0 m 3.469,-5.394 c -0.789,0 -1.507,0.147 -2.156,0.441 -0.648,0.294 -1.203,0.688 -1.664,1.183 -0.461,0.495 -0.819,1.07 -1.072,1.725 -0.255,0.654 -0.382,1.343 -0.382,2.065 0,0.735 0.131,1.43 0.391,2.085 0.261,0.655 0.622,1.23 1.083,1.725 0.461,0.494 1.016,0.889 1.664,1.183 0.649,0.294 1.361,0.441 2.136,0.441 0.775,0 1.49,-0.147 2.146,-0.441 C 6.27,4.719 6.828,4.324 7.289,3.83 7.75,3.335 8.111,2.76 8.372,2.105 8.632,1.45 8.763,0.755 8.763,0.02 8.763,-0.702 8.635,-1.391 8.382,-2.045 8.127,-2.7 7.767,-3.275 7.299,-3.77 6.831,-4.265 6.273,-4.659 5.625,-4.953 4.976,-5.247 4.258,-5.394 3.469,-5.394"
             style="fill:#235ba7;fill-opacity:1;fill-rule:nonzero;stroke:none"
             id="path266" />
        </g>
        <g
           id="g268"
           transform="translate(492.896,120.2034)">
          <path
             d="M 0,0 C 0.628,0 1.213,0.117 1.754,0.351 2.296,0.584 2.707,0.896 2.988,1.283 3.242,1.537 3.369,1.797 3.369,2.065 V 3.609 C 2.513,3.943 1.624,4.11 0.702,4.11 -0.181,4.11 -0.899,3.923 -1.454,3.549 -2.009,3.175 -2.286,2.687 -2.286,2.085 -2.286,1.791 -2.229,1.517 -2.115,1.263 -2.002,1.009 -1.842,0.789 -1.634,0.602 -1.427,0.414 -1.183,0.267 -0.902,0.16 -0.622,0.053 -0.321,0 0,0 m -0.461,-1.324 c -0.495,0 -0.956,0.084 -1.384,0.251 -0.428,0.167 -0.799,0.398 -1.113,0.692 -0.314,0.294 -0.561,0.638 -0.742,1.032 -0.18,0.395 -0.27,0.826 -0.27,1.294 0,0.481 0.107,0.919 0.321,1.313 0.213,0.394 0.518,0.732 0.912,1.013 0.394,0.281 0.862,0.501 1.404,0.662 0.541,0.16 1.132,0.24 1.774,0.24 0.508,0 1.023,-0.047 1.544,-0.14 C 2.506,4.939 2.968,4.812 3.369,4.652 v 0.842 c 0,0.855 -0.241,1.527 -0.722,2.015 -0.481,0.488 -1.163,0.732 -2.045,0.732 -1.057,0 -2.166,-0.408 -3.329,-1.223 L -3.309,8.161 C -1.958,9.07 -0.602,9.524 0.762,9.524 2.139,9.524 3.211,9.157 3.98,8.421 4.749,7.686 5.133,6.65 5.133,5.313 V 1.042 C 5.133,0.628 5.32,0.414 5.695,0.401 V -1.123 C 5.507,-1.15 5.354,-1.17 5.233,-1.183 c -0.12,-0.013 -0.247,-0.02 -0.38,-0.02 -0.348,0 -0.625,0.103 -0.832,0.31 -0.208,0.207 -0.332,0.458 -0.372,0.752 L 3.609,0.602 C 3.141,-0.027 2.55,-0.505 1.834,-0.833 1.12,-1.16 0.354,-1.324 -0.461,-1.324"
             style="fill:#235ba7;fill-opacity:1;fill-rule:nonzero;stroke:none"
             id="path270" />
        </g>
        <g
           id="g272"
           transform="translate(500.4951,133.718)">
          <path
             d="m 0,0 h 1.765 v -11.931 c 0,-0.387 0.103,-0.692 0.31,-0.912 0.207,-0.22 0.498,-0.331 0.872,-0.331 0.147,0 0.322,0.023 0.522,0.07 0.2,0.047 0.387,0.104 0.561,0.171 l 0.281,-1.424 c -0.294,-0.12 -0.642,-0.221 -1.042,-0.301 -0.402,-0.08 -0.756,-0.12 -1.063,-0.12 -0.682,0 -1.221,0.194 -1.615,0.581 C 0.197,-13.809 0,-13.268 0,-12.572 Z"
             style="fill:#235ba7;fill-opacity:1;fill-rule:nonzero;stroke:none"
             id="path274" />
        </g>
        <g
           id="g276"
           transform="translate(509.458,118.8796)">
          <path
             d="m 0,0 c -0.842,0 -1.671,0.13 -2.486,0.391 -0.816,0.261 -1.518,0.638 -2.106,1.133 l 0.762,1.183 c 0.615,-0.468 1.23,-0.819 1.845,-1.053 0.614,-0.234 1.263,-0.35 1.945,-0.35 0.762,0 1.366,0.15 1.814,0.451 0.448,0.301 0.672,0.724 0.672,1.273 0,0.254 -0.06,0.471 -0.18,0.652 C 2.146,3.86 1.965,4.017 1.724,4.151 1.484,4.284 1.176,4.405 0.802,4.512 0.428,4.619 -0.007,4.732 -0.501,4.853 -1.13,5.013 -1.671,5.167 -2.125,5.314 -2.58,5.461 -2.955,5.635 -3.249,5.835 -3.542,6.036 -3.757,6.276 -3.89,6.557 -4.024,6.838 -4.091,7.185 -4.091,7.6 c 0,0.521 0.104,0.985 0.311,1.393 0.207,0.408 0.491,0.749 0.852,1.023 0.361,0.274 0.785,0.481 1.274,0.622 0.487,0.14 1.012,0.21 1.573,0.21 0.789,0 1.524,-0.127 2.206,-0.381 C 2.807,10.213 3.382,9.879 3.85,9.464 L 3.048,8.402 C 2.606,8.79 2.112,9.08 1.564,9.274 1.016,9.468 0.454,9.565 -0.121,9.565 -0.762,9.565 -1.307,9.428 -1.755,9.154 -2.203,8.879 -2.426,8.442 -2.426,7.84 c 0,-0.24 0.043,-0.441 0.13,-0.601 0.087,-0.16 0.231,-0.301 0.431,-0.421 0.2,-0.121 0.458,-0.228 0.772,-0.321 C -0.779,6.403 -0.401,6.303 0.04,6.196 0.735,6.036 1.34,5.872 1.854,5.705 2.369,5.538 2.797,5.34 3.138,5.113 3.479,4.886 3.732,4.619 3.9,4.311 4.067,4.003 4.15,3.629 4.15,3.188 4.15,2.212 3.776,1.437 3.028,0.862 2.279,0.288 1.27,0 0,0"
             style="fill:#235ba7;fill-opacity:1;fill-rule:nonzero;stroke:none"
             id="path278" />
        </g>
      </g>
    </g>
  </g>
</svg>
